<mxfile host="app.diagrams.net" agent="Mozilla/5.0 (Macintosh; Intel Mac OS X 10_15_7) AppleWebKit/537.36 (KHTML, like Gecko) Chrome/128.0.0.0 Safari/537.36" version="26.0.2">
  <diagram name="第 1 页" id="UwPCsk7tcZKnBwsrufCo">
    <mxGraphModel dx="2647" dy="519" grid="1" gridSize="10" guides="1" tooltips="1" connect="1" arrows="1" fold="1" page="1" pageScale="1" pageWidth="827" pageHeight="1169" math="0" shadow="0">
      <root>
        <mxCell id="0" />
        <mxCell id="1" parent="0" />
        <mxCell id="H55pQzMAIsQwWW3oVqWX-6" style="edgeStyle=orthogonalEdgeStyle;rounded=0;hachureGap=4;orthogonalLoop=1;jettySize=auto;html=1;fontFamily=Architects Daughter;fontSource=https%3A%2F%2Ffonts.googleapis.com%2Fcss%3Ffamily%3DArchitects%2BDaughter;curved=1;exitX=0.5;exitY=1;exitDx=0;exitDy=0;sketch=1;curveFitting=1;jiggle=2;" edge="1" parent="1" source="H55pQzMAIsQwWW3oVqWX-1" target="H55pQzMAIsQwWW3oVqWX-2">
          <mxGeometry relative="1" as="geometry" />
        </mxCell>
        <mxCell id="H55pQzMAIsQwWW3oVqWX-7" style="edgeStyle=orthogonalEdgeStyle;shape=connector;curved=1;rounded=0;sketch=1;hachureGap=4;jiggle=2;curveFitting=1;orthogonalLoop=1;jettySize=auto;html=1;entryX=0.5;entryY=0;entryDx=0;entryDy=0;strokeColor=default;align=center;verticalAlign=middle;fontFamily=Architects Daughter;fontSource=https%3A%2F%2Ffonts.googleapis.com%2Fcss%3Ffamily%3DArchitects%2BDaughter;fontSize=11;fontColor=default;labelBackgroundColor=default;endArrow=classic;" edge="1" parent="1" source="H55pQzMAIsQwWW3oVqWX-1" target="H55pQzMAIsQwWW3oVqWX-3">
          <mxGeometry relative="1" as="geometry" />
        </mxCell>
        <mxCell id="H55pQzMAIsQwWW3oVqWX-8" style="edgeStyle=orthogonalEdgeStyle;shape=connector;curved=1;rounded=0;sketch=1;hachureGap=4;jiggle=2;curveFitting=1;orthogonalLoop=1;jettySize=auto;html=1;strokeColor=default;align=center;verticalAlign=middle;fontFamily=Architects Daughter;fontSource=https%3A%2F%2Ffonts.googleapis.com%2Fcss%3Ffamily%3DArchitects%2BDaughter;fontSize=11;fontColor=default;labelBackgroundColor=default;endArrow=classic;" edge="1" parent="1" source="H55pQzMAIsQwWW3oVqWX-1" target="H55pQzMAIsQwWW3oVqWX-4">
          <mxGeometry relative="1" as="geometry" />
        </mxCell>
        <mxCell id="H55pQzMAIsQwWW3oVqWX-9" style="edgeStyle=orthogonalEdgeStyle;shape=connector;curved=1;rounded=0;sketch=1;hachureGap=4;jiggle=2;curveFitting=1;orthogonalLoop=1;jettySize=auto;html=1;strokeColor=default;align=center;verticalAlign=middle;fontFamily=Architects Daughter;fontSource=https%3A%2F%2Ffonts.googleapis.com%2Fcss%3Ffamily%3DArchitects%2BDaughter;fontSize=11;fontColor=default;labelBackgroundColor=default;endArrow=classic;exitX=0.5;exitY=1;exitDx=0;exitDy=0;" edge="1" parent="1" source="H55pQzMAIsQwWW3oVqWX-1" target="H55pQzMAIsQwWW3oVqWX-5">
          <mxGeometry relative="1" as="geometry" />
        </mxCell>
        <mxCell id="H55pQzMAIsQwWW3oVqWX-1" value="2025 年目标：变现 100万" style="rounded=1;whiteSpace=wrap;html=1;sketch=1;curveFitting=1;jiggle=2;" vertex="1" parent="1">
          <mxGeometry x="-480" y="40" width="160" height="40" as="geometry" />
        </mxCell>
        <mxCell id="H55pQzMAIsQwWW3oVqWX-2" value="课程变现" style="rounded=1;whiteSpace=wrap;html=1;sketch=1;curveFitting=1;jiggle=2;" vertex="1" parent="1">
          <mxGeometry x="-840" y="160" width="160" height="40" as="geometry" />
        </mxCell>
        <mxCell id="H55pQzMAIsQwWW3oVqWX-3" value="广告变现" style="rounded=1;whiteSpace=wrap;html=1;sketch=1;curveFitting=1;jiggle=2;" vertex="1" parent="1">
          <mxGeometry x="-600" y="160" width="160" height="40" as="geometry" />
        </mxCell>
        <mxCell id="H55pQzMAIsQwWW3oVqWX-4" value="带货变现" style="rounded=1;whiteSpace=wrap;html=1;sketch=1;curveFitting=1;jiggle=2;" vertex="1" parent="1">
          <mxGeometry x="-360" y="160" width="160" height="40" as="geometry" />
        </mxCell>
        <mxCell id="H55pQzMAIsQwWW3oVqWX-5" value="接单变现" style="rounded=1;whiteSpace=wrap;html=1;sketch=1;curveFitting=1;jiggle=2;" vertex="1" parent="1">
          <mxGeometry x="-120" y="160" width="160" height="40" as="geometry" />
        </mxCell>
      </root>
    </mxGraphModel>
  </diagram>
</mxfile>
